PathFileType	4	(X/Y/Z)	/home/skhan/TracX/Projects/SHARESPACE/EXERCISES/pose-3d/online_20250326-113730_310-350.trc
DataRate	CameraRate	NumFrames	NumMarkers	Units	OrigDataRate	OrigDataStartFrame	OrigNumFrames
30	30	4	37	m	30	900	1200
Frame#	Time	Hip			RHip			RKnee			RAnkle			RBigToe			RSmallToe			RHeel			LHip			LKnee			LAnkle			LBigToe			LSmallToe			LHeel			Spine_01			Spine_02			Spine_03			Spine_04			Spine_05			LLatissimus			RLatissimus			RClavicle			RShoulder			RElbow			RWrist			LClavicle			LShoulder			LElbow			LWrist			Neck			Neck_02			Neck_03			Head			Nose			LEye			LEar			REye			REar		
		X1	Y1	Z1	X2	Y2	Z2	X3	Y3	Z3	X4	Y4	Z4	X5	Y5	Z5	X6	Y6	Z6	X7	Y7	Z7	X8	Y8	Z8	X9	Y9	Z9	X10	Y10	Z10	X11	Y11	Z11	X12	Y12	Z12	X13	Y13	Z13	X14	Y14	Z14	X15	Y15	Z15	X16	Y16	Z16	X17	Y17	Z17	X18	Y18	Z18	X19	Y19	Z19	X20	Y20	Z20	X21	Y21	Z21	X22	Y22	Z22	X23	Y23	Z23	X24	Y24	Z24	X25	Y25	Z25	X26	Y26	Z26	X27	Y27	Z27	X28	Y28	Z28	X29	Y29	Z29	X30	Y30	Z30	X31	Y31	Z31	X32	Y32	Z32	X33	Y33	Z33	X34	Y34	Z34	X35	Y35	Z35	X36	Y36	Z36	X37	Y37	Z37
900	30.0	-0.06826923119039684	-0.5690857179441131	0.09480269490632291	-0.1530240649058381	-0.5160011136973259	-0.024143612508282557	0.2710744518662716	-0.4063504814576867	-0.16599073518370683	0.2758582112336823	-0.5038955583109761	-0.23851475403974795	0.44576976795229484	-0.28756944311560595	-0.25787095459960585	0.39506266858779915	-0.2878009077134639	-0.28034473235438884	0.28010181627795017	-0.5436680602463067	-0.2702375143850781	0.03644152924810565	-0.593609515532022	0.08679894210894207	0.3339167078519002	-0.47593190606894364	0.1260435100487465	0.638607867716357	-0.30681971240301364	-0.26719670656841954	0.7790651812021157	-0.17812570184514254	-0.28551862521856197	0.7939747556135113	-0.21285403617468468	-0.27726363268114285	0.6370584666130452	-0.2892370511603245	-0.337390854988338	-0.07186029904092651	-0.5611492855854242	0.14100921477192213	-0.08707841857245607	-0.5564165884680115	0.21492581807305372	-0.10831401491957147	-0.552176717129233	0.30591391949268637	-0.13027638690231697	-0.5479725740437362	0.4109376217989713	-0.14075571203655007	-0.5346984540952666	0.5220024446744621	-0.01460150436495251	-0.620012053645953	0.34008977902014564	-0.2204542878711505	-0.479310938823828	0.285512831255154	-0.17072666402375777	-0.5394358086642463	0.4840935456530027	-0.3117635785387288	-0.4340666931091029	0.4722842705728585	-0.49172480171016514	-0.4670510922240583	0.15535089894648638	-0.4410966863660478	-0.3285617602406301	-0.11444522401455463	-0.14108507200262857	-0.5643376331089723	0.4902054178411217	0.0030589296134835727	-0.6487309440590603	0.5183405936352175	0.09590109114302488	-0.7701461946615572	0.2633820428848358	0.26577024519256504	-0.776917927727937	0.11493828607891314	-0.12838856651974717	-0.5065513623936767	0.6110170436986344	-0.11845780178557891	-0.4903628360844126	0.6523777209679067	-0.10452699007062415	-0.4672374931683515	0.7098425244713962	-0.08177343612608673	-0.43057161901035595	0.7988639513063946	-0.04747298434189088	-0.390631989269909	0.6190870519542929	-0.02801762359722152	-0.4284045418900156	0.6598031382792582	-0.005989441794979288	-0.49078077920793606	0.6667293563492791	-0.09206008287982707	-0.38149981050560605	0.6634535784198592	-0.19280258793492921	-0.41771140618524727	0.6770657509907794
901	30.033333333333335	-0.06464582717125564	-0.5704131693806975	0.09531655624438251	-0.15138996846889505	-0.5171211456348698	-0.0228847558421004	0.2722534695327529	-0.4142887589884822	-0.16317777365320937	0.27613214520220175	-0.5027347201123284	-0.23598570398500401	0.43715748240712676	-0.32097030335855387	-0.26768910167627913	0.38426591738716925	-0.30812525163531	-0.29068719459718806	0.2831554445427705	-0.539351796538478	-0.2671837644804131	0.04078104554041491	-0.5915743201415402	0.08509206068714853	0.3369072128286247	-0.48000384113321093	0.12152044003238024	0.6395998663988617	-0.308801120462747	-0.26947695682761463	0.7783008346178028	-0.18074537343779756	-0.2859973473003177	0.7936325054018842	-0.21489723349302392	-0.27849842305398065	0.6379859727086719	-0.28973052614375316	-0.3400312151161269	-0.06875294115785502	-0.5625959455380551	0.14140449347995132	-0.0845559465685407	-0.557828559081363	0.21523325206186444	-0.10628743250004555	-0.5542522059674674	0.3058308242604526	-0.12911760367074993	-0.550918063899869	0.41023375118898947	-0.14007077832126813	-0.5371078316508017	0.5208881929562739	-0.01055493435562831	-0.6201545280848489	0.34051674532686144	-0.22104775705968033	-0.48657170255835	0.28481704615668196	-0.17070300974589253	-0.5450838258365724	0.4827776733106559	-0.31349155971597276	-0.4408041806972339	0.4721034492870691	-0.4995142295922371	-0.4899642405218636	0.16278230409758765	-0.4565721351960376	-0.35491575769471434	-0.10289776883545428	-0.1397513231456187	-0.5676845415935438	0.48921663893914435	0.00699106023817613	-0.649101133931455	0.515890414703829	0.10572147994007555	-0.7675831957627426	0.2640609687915784	0.2725312558084549	-0.7752683940473815	0.11503608000870397	-0.1285738950703518	-0.5082726088858391	0.6091903228883602	-0.11944789264153705	-0.4925464826538931	0.6497697078814102	-0.10627287455944548	-0.46879423933010494	0.7066558977398154	-0.0847643296611002	-0.4315447207805855	0.7943727243851939	-0.053682692275790436	-0.3894391057676649	0.615213053632234	-0.033609412867956504	-0.42538847058549345	0.6555800998903197	-0.007814311745708017	-0.492354911389562	0.6640085532650652	-0.09845407274088576	-0.3821983828939261	0.6595321918805563	-0.19560680837274996	-0.42200734288398195	0.6732528955266412
902	30.066666666666666	-0.06411140782666838	-0.5754176659690254	0.0933283613621221	-0.15083064594740236	-0.5190007619965261	-0.020809869344088287	0.2696139436059647	-0.41374759579993037	-0.1567265442617824	0.27336269664961127	-0.5069607386166052	-0.2367691194051456	0.4207773761691568	-0.33686609456624317	-0.26169094512935637	0.36750457484524945	-0.3280626949256592	-0.282012407447962	0.2823197920198798	-0.5423580013117592	-0.26941233366225786	0.04429011476428702	-0.5916061365235662	0.08276571975784652	0.33773363769865694	-0.4810772914545949	0.12049754348718916	0.6407106439490442	-0.307355927141805	-0.2695649163430569	0.7775968102183191	-0.17969896051240525	-0.28434284431535434	0.7933187849928424	-0.2150789620444862	-0.2779722607490742	0.6393157093927349	-0.2878734268366701	-0.34132867316118587	-0.06848865887967055	-0.5670969465282466	0.1391062763376031	-0.08410788480956688	-0.5621262615149087	0.21306588853783046	-0.10580615594792887	-0.5588493789929566	0.3033904344824969	-0.12862484300858792	-0.554520095744329	0.40819840746344743	-0.1399118131334119	-0.5395136491029973	0.5186681730608346	-0.0074556081056769705	-0.6238020120028087	0.33731138619225537	-0.22312605510922026	-0.49456695930172734	0.2838662421993725	-0.17016576426572783	-0.549701875221208	0.4805458390042729	-0.31678791261469774	-0.4483676174636429	0.4711414358556614	-0.5069663570607684	-0.5120127314402942	0.16931878756766872	-0.4716892601782647	-0.38029053064920626	-0.0906227627412722	-0.1383319922906802	-0.5692331435658011	0.48705895857911735	0.01116404771248146	-0.6475309357742828	0.5153003923179349	0.1127325185835118	-0.7660337243408268	0.2663407662353298	0.27398564858637803	-0.7844001054516777	0.11242803675482739	-0.12946470449714867	-0.5094434722884226	0.6066172297404638	-0.12131477488338782	-0.4937429309260035	0.6471087156420565	-0.10920425917846527	-0.46988670295467094	0.7036783245015459	-0.08958188037882604	-0.43306525737342805	0.7908291646572416	-0.0624316595228875	-0.3895004420853648	0.6097611060575586	-0.041158230589228795	-0.42317179676862837	0.6503690672678609	-0.011151439264006559	-0.493780075320578	0.6604162304765816	-0.10677019910957941	-0.38259712116296085	0.6546994903847385	-0.2002029551029642	-0.42407643209496626	0.6698902463000624
903	30.1	-0.06308886896977516	-0.5820357594881956	0.0921584497506351	-0.15009155462154167	-0.5214814120024573	-0.01906452092377937	0.2686648587719324	-0.4155669364529616	-0.14790775392770242	0.27452847639687383	-0.5194649642732788	-0.23767537761620464	0.4131067095800379	-0.3632929274241589	-0.26286513895322905	0.3570054630920442	-0.35342438118004454	-0.27912004864880735	0.2873640188543339	-0.5521719015486023	-0.27051615893593495	0.046459375175747296	-0.5932683009258698	0.0826008731123856	0.33920468578097057	-0.4857048365946821	0.11664573158011465	0.6406462154763195	-0.30821747464338733	-0.27000962852378685	0.7754781194834824	-0.18159338240438283	-0.28247351981109897	0.7918958676380092	-0.21692400288391672	-0.2770364698400196	0.6399653052210831	-0.2873180213796624	-0.3421067719773602	-0.06765735898812393	-0.5726968520743102	0.13794273846485477	-0.08366699397764367	-0.5674949716945609	0.2119811058331062	-0.10579099709523525	-0.5630992434310023	0.3021439074270448	-0.12893885948293082	-0.5572662168929263	0.4071167432043368	-0.14091322628208688	-0.5408736524683969	0.5169546441356381	-0.004348780810392672	-0.6230833257207302	0.3370511227708318	-0.2259838733675939	-0.5051619603721617	0.2830209139720039	-0.1704706175069337	-0.5516046094664772	0.47958028393577035	-0.3202851781682586	-0.4567941633119393	0.4698932830627087	-0.5138148512817217	-0.5307272906172638	0.1770866537052512	-0.48620357292794525	-0.4062829423660056	-0.07780097952463133	-0.13739663344639805	-0.5706585636280044	0.4857951737925626	0.014127760818158423	-0.6457128121359746	0.5151035433978044	0.1221117302938354	-0.7604483967658442	0.26911529895081404	0.2835523338159546	-0.7750507212714857	0.11431807001451572	-0.1319127932939331	-0.510034135047386	0.6039395647399635	-0.1248030538333909	-0.4944424866731101	0.6436894703292992	-0.11407075223234145	-0.4707835635062013	0.6990068302244238	-0.09633269357473116	-0.4336203261091637	0.7844853961068516	-0.07331202612174348	-0.38840995019038654	0.6047136837039705	-0.050618247484720456	-0.42076284000987874	0.6454281292372437	-0.015870293636725055	-0.495071547590735	0.6568917955568572	-0.11757501779674673	-0.38379559169167954	0.6498833779244063	-0.20632032916684057	-0.42890329864097265	0.6661634489769339
